<?xml version="1.0" encoding="UTF-8" standalone="no"?>
<!-- Created with Inkscape (http://www.inkscape.org/) -->

<svg
   xmlns:dc="http://purl.org/dc/elements/1.1/"
   xmlns:cc="http://creativecommons.org/ns#"
   xmlns:rdf="http://www.w3.org/1999/02/22-rdf-syntax-ns#"
   xmlns:svg="http://www.w3.org/2000/svg"
   xmlns="http://www.w3.org/2000/svg"
   xmlns:xlink="http://www.w3.org/1999/xlink"
   xmlns:sodipodi="http://sodipodi.sourceforge.net/DTD/sodipodi-0.dtd"
   xmlns:inkscape="http://www.inkscape.org/namespaces/inkscape"
   width="1024"
   height="1024"
   id="svg2"
   version="1.1"
   inkscape:version="0.91 r13725"
   sodipodi:docname="vsedit-job-server-watcher.svg"
   enable-background="new"
   inkscape:export-filename="/home/aleksey-lyashin/git/vapoursynth-editor/resources/vsedit-job-server-watcher-256.png"
   inkscape:export-xdpi="22.5"
   inkscape:export-ydpi="22.5">
  <defs
     id="defs4">
    <linearGradient
       id="linearGradient3450">
      <stop
         style="stop-color:#333333;stop-opacity:1;"
         offset="0"
         id="stop3452" />
      <stop
         style="stop-color:#000000;stop-opacity:1;"
         offset="1"
         id="stop3454" />
    </linearGradient>
    <linearGradient
       id="linearGradient3409">
      <stop
         style="stop-color:#e7eef2;stop-opacity:1;"
         offset="0"
         id="stop3411" />
      <stop
         style="stop-color:#141617;stop-opacity:1;"
         offset="1"
         id="stop3413" />
    </linearGradient>
    <linearGradient
       id="linearGradient3376">
      <stop
         style="stop-color:#ffffff;stop-opacity:1;"
         offset="0"
         id="stop3378" />
      <stop
         style="stop-color:#f7f700;stop-opacity:1;"
         offset="1"
         id="stop3380" />
    </linearGradient>
    <linearGradient
       id="linearGradient3274">
      <stop
         style="stop-color:#f0fbff;stop-opacity:1;"
         offset="0"
         id="stop3276" />
      <stop
         style="stop-color:#006fd2;stop-opacity:1;"
         offset="1"
         id="stop3278" />
    </linearGradient>
    <inkscape:perspective
       sodipodi:type="inkscape:persp3d"
       inkscape:vp_x="1335.7143 : 967.71427 : 1"
       inkscape:vp_y="0 : 1000 : 0"
       inkscape:vp_z="1335.4286 : 459.14286 : 1"
       inkscape:persp3d-origin="512 : 341.33333 : 1"
       id="perspective3028" />
    <linearGradient
       id="linearGradient3018">
      <stop
         style="stop-color:#0000ff;stop-opacity:1;"
         offset="0"
         id="stop3020" />
      <stop
         id="stop3026"
         offset="0.5"
         style="stop-color:#00ff00;stop-opacity:1;" />
      <stop
         style="stop-color:#ffffff;stop-opacity:1;"
         offset="1"
         id="stop3022" />
    </linearGradient>
    <linearGradient
       inkscape:collect="always"
       xlink:href="#linearGradient3274"
       id="linearGradient3280"
       x1="168"
       y1="48"
       x2="856"
       y2="976"
       gradientUnits="userSpaceOnUse" />
    <linearGradient
       inkscape:collect="always"
       xlink:href="#linearGradient3450"
       id="linearGradient3456"
       x1="800"
       y1="672"
       x2="224"
       y2="352"
       gradientUnits="userSpaceOnUse" />
  </defs>
  <sodipodi:namedview
     id="base"
     pagecolor="#ffffff"
     bordercolor="#666666"
     borderopacity="1.0"
     inkscape:pageopacity="0"
     inkscape:pageshadow="2"
     inkscape:zoom="0.45254834"
     inkscape:cx="-4.2840068"
     inkscape:cy="503.36274"
     inkscape:document-units="px"
     inkscape:current-layer="layer2"
     showgrid="true"
     inkscape:snap-bbox="true"
     inkscape:snap-grids="true"
     showborder="true"
     inkscape:showpageshadow="false"
     borderlayer="false"
     inkscape:window-width="1920"
     inkscape:window-height="1026"
     inkscape:window-x="0"
     inkscape:window-y="0"
     inkscape:window-maximized="1"
     inkscape:object-paths="true"
     inkscape:snap-intersection-paths="true"
     inkscape:object-nodes="true"
     inkscape:snap-midpoints="true"
     inkscape:snap-object-midpoints="true"
     inkscape:bbox-nodes="true"
     showguides="true"
     inkscape:guide-bbox="true"
     inkscape:snap-bbox-edge-midpoints="true"
     inkscape:snap-global="true"
     inkscape:snap-bbox-midpoints="true">
    <inkscape:grid
       type="xygrid"
       id="grid2993"
       empspacing="8"
       visible="true"
       enabled="true"
       snapvisiblegridlinesonly="true" />
    <sodipodi:guide
       orientation="1,0"
       position="168,1040"
       id="guide3083" />
    <sodipodi:guide
       orientation="1,0"
       position="856,472"
       id="guide3085" />
    <sodipodi:guide
       orientation="1,0"
       position="512,1072"
       id="guide3444" />
    <sodipodi:guide
       orientation="0,1"
       position="-80,512"
       id="guide3446" />
  </sodipodi:namedview>
  <metadata
     id="metadata7">
    <rdf:RDF>
      <cc:Work
         rdf:about="">
        <dc:format>image/svg+xml</dc:format>
        <dc:type
           rdf:resource="http://purl.org/dc/dcmitype/StillImage" />
        <dc:title></dc:title>
      </cc:Work>
    </rdf:RDF>
  </metadata>
  <g
     inkscape:label="Film"
     inkscape:groupmode="layer"
     id="layer1"
     transform="translate(0,-28.362183)"
     style="display:inline">
    <path
       style="fill:#000000;stroke:#000000"
       d="m 48,0 0,1024 32,0 0,-32 c 0,-4.432 3.568,-8 8,-8 l 48,0 c 4.432,0 8,3.568 8,8 l 0,32 736,0 0,-32 c 0,-4.432 3.568,-8 8,-8 l 48,0 c 4.432,0 8,3.568 8,8 l 0,32 32,0 L 976,0 48,0 Z m 40,24 48,0 c 4.432,0 8,3.568 8,8 l 0,64 c 0,4.432 -3.568,8 -8,8 l -48,0 c -4.432,0 -8,-3.568 -8,-8 l 0,-64 c 0,-4.432 3.568,-8 8,-8 z m 800,0 48,0 c 4.432,0 8,3.568 8,8 l 0,64 c 0,4.432 -3.568,8 -8,8 l -48,0 c -4.432,0 -8,-3.568 -8,-8 l 0,-64 c 0,-4.432 3.568,-8 8,-8 z m -800,160 48,0 c 4.432,0 8,3.568 8,8 l 0,64 c 0,4.432 -3.568,8 -8,8 l -48,0 c -4.432,0 -8,-3.568 -8,-8 l 0,-64 c 0,-4.432 3.568,-8 8,-8 z m 800,0 48,0 c 4.432,0 8,3.568 8,8 l 0,64 c 0,4.432 -3.568,8 -8,8 l -48,0 c -4.432,0 -8,-3.568 -8,-8 l 0,-64 c 0,-4.432 3.568,-8 8,-8 z m -800,160 48,0 c 4.432,0 8,3.568 8,8 l 0,64 c 0,4.432 -3.568,8 -8,8 l -48,0 c -4.432,0 -8,-3.568 -8,-8 l 0,-64 c 0,-4.432 3.568,-8 8,-8 z m 800,0 48,0 c 4.432,0 8,3.568 8,8 l 0,64 c 0,4.432 -3.568,8 -8,8 l -48,0 c -4.432,0 -8,-3.568 -8,-8 l 0,-64 c 0,-4.432 3.568,-8 8,-8 z m -800,160 48,0 c 4.432,0 8,3.568 8,8 l 0,64 c 0,4.432 -3.568,8 -8,8 l -48,0 c -4.432,0 -8,-3.568 -8,-8 l 0,-64 c 0,-4.432 3.568,-8 8,-8 z m 800,0 48,0 c 4.432,0 8,3.568 8,8 l 0,64 c 0,4.432 -3.568,8 -8,8 l -48,0 c -4.432,0 -8,-3.568 -8,-8 l 0,-64 c 0,-4.432 3.568,-8 8,-8 z m -800,160 48,0 c 4.432,0 8,3.568 8,8 l 0,64 c 0,4.432 -3.568,8 -8,8 l -48,0 c -4.432,0 -8,-3.568 -8,-8 l 0,-64 c 0,-4.432 3.568,-8 8,-8 z m 800,0 48,0 c 4.432,0 8,3.568 8,8 l 0,64 c 0,4.432 -3.568,8 -8,8 l -48,0 c -4.432,0 -8,-3.568 -8,-8 l 0,-64 c 0,-4.432 3.568,-8 8,-8 z m -800,160 48,0 c 4.432,0 8,3.568 8,8 l 0,64 c 0,4.432 -3.568,8 -8,8 l -48,0 c -4.432,0 -8,-3.568 -8,-8 l 0,-64 c 0,-4.432 3.568,-8 8,-8 z m 800,0 48,0 c 4.432,0 8,3.568 8,8 l 0,64 c 0,4.432 -3.568,8 -8,8 l -48,0 c -4.432,0 -8,-3.568 -8,-8 l 0,-64 c 0,-4.432 3.568,-8 8,-8 z"
       id="rect3044"
       transform="translate(0,28.362183)"
       inkscape:connector-curvature="0" />
    <rect
       style="fill:url(#linearGradient3280);fill-opacity:1;stroke:none"
       id="rect3270"
       width="688"
       height="928"
       x="168"
       y="48"
       rx="0"
       ry="0"
       transform="translate(0,28.362183)" />
  </g>
  <g
     inkscape:groupmode="layer"
     id="layer2"
     inkscape:label="Text"
     style="display:inline">
    <g
       transform="scale(0.74887564,1.3353352)"
       style="font-style:normal;font-variant:normal;font-weight:bold;font-stretch:normal;font-size:600.90081787px;line-height:125%;font-family:Sans;-inkscape-font-specification:'Sans Bold';text-align:center;letter-spacing:0px;word-spacing:0px;writing-mode:lr-tb;text-anchor:middle;fill:#000000;fill-opacity:1;fill-rule:evenodd;stroke:none"
       id="text3014" />
    <g
       transform="matrix(0.63618131,0,0,1.0007007,77.21675,127.88182)"
       style="font-style:normal;font-variant:normal;font-weight:bold;font-stretch:normal;font-size:600.90081787px;line-height:125%;font-family:Sans;-inkscape-font-specification:'Sans Bold';text-align:center;letter-spacing:0px;word-spacing:0px;writing-mode:lr-tb;text-anchor:middle;fill:#000000;fill-opacity:1;fill-rule:evenodd;stroke:none"
       id="text3014-6">
      <path
         id="path3463-3-5"
         style="font-style:normal;font-variant:normal;font-weight:bold;font-stretch:normal;font-size:600.90081787px;line-height:125%;font-family:Sans;-inkscape-font-specification:'Sans Bold';text-align:center;letter-spacing:0px;word-spacing:0px;writing-mode:lr-tb;text-anchor:middle;fill:#000000;fill-opacity:1;fill-rule:evenodd;stroke:#000000;stroke-width:0.99504513px;stroke-linecap:butt;stroke-linejoin:miter;stroke-opacity:1"
         d="m 256.11193,384.16618 c 0,0 149.55865,94.62977 427.31041,94.62977 277.75177,0 427.31046,-94.62977 427.31046,-94.62977 m -854.60925,-0.15679 c 0,0 149.55753,-95.57526 427.30725,-95.57526 277.74972,0 427.3073,95.57526 427.3073,95.57526 m -930.63341,0.82976 c 0,0 176.05174,126.27398 503.00496,126.27398 326.95325,0 503.00505,-126.27398 503.00505,-126.27398 M 180.11837,384.62993 c 0,0 176.05042,-127.53565 503.00124,-127.53565 326.95079,0 503.00129,127.53565 503.00129,127.53565" />
    </g>
    <ellipse
       style="fill:#000000;fill-opacity:1;fill-rule:evenodd;stroke-width:1;stroke-miterlimit:4;stroke-dasharray:none"
       id="path4369"
       cx="512"
       cy="512"
       rx="88"
       ry="80" />
  </g>
</svg>
